42ba1c4170f9fd6e98af29151f4cedb0 *tests/data/fate/pcm_dvd-16-2-48000.vob
2502656 tests/data/fate/pcm_dvd-16-2-48000.vob
#tb 0: 1/48000
#media_type 0: audio
#codec_id 0: pcm_s16le
#sample_rate 0: 48000
#channel_layout_name 0: stereo
0,          0,          0,      498,     1992, 0x60a8f5dd
0,        502,        502,      503,     2012, 0x685028f8
0,       1004,       1004,      503,     2012, 0x567d0e82
0,       1506,       1506,      503,     2012, 0x0f7240cd
0,       2008,       2008,      503,     2012, 0x61a87973
0,       2510,       2510,      503,     2012, 0x9cdc5ce4
0,       3514,       3514,      503,     2012, 0x6772d774
0,       4016,       4016,      503,     2012, 0x56b0d501
0,       4518,       4518,      503,     2012, 0xb98154d3
0,       5020,       5020,      503,     2012, 0xc4d8035c
0,       5522,       5522,      503,     2012, 0x6af47ddd
0,       6024,       6024,      503,     2012, 0xb3dddfd4
0,       6526,       6526,      503,     2012, 0x33354177
0,       7028,       7028,      503,     2012, 0x6eabf85f
0,       7530,       7530,      503,     2012, 0x22e78b8d
0,       8032,       8032,      503,     2012, 0x64011afb
0,       8534,       8534,      503,     2012, 0x96e079c7
0,       9036,       9036,      503,     2012, 0x68419738
0,       9538,       9538,       62,      248, 0x6401374a
